<?xml version="1.0" standalone="no"?>
<!DOCTYPE svg PUBLIC "-//W3C//DTD SVG 20010904//EN"
 "http://www.w3.org/TR/2001/REC-SVG-20010904/DTD/svg10.dtd">
<svg version="1.0" xmlns="http://www.w3.org/2000/svg"
 width="500.000000pt" height="500.000000pt" viewBox="0 0 500.000000 500.000000"
 preserveAspectRatio="xMidYMid meet">

<g transform="translate(0.000000,500.000000) scale(0.100000,-0.100000)"
fill="#000000" stroke="none">
<path d="M2762 4702 c-5 -15 -15 -46 -21 -69 -14 -51 -32 -65 -86 -64 -10 0
-24 -4 -30 -8 -5 -5 -37 -4 -70 1 -33 4 -68 8 -77 9 -10 0 -30 16 -46 35 l-29
34 -45 -20 c-25 -11 -51 -26 -58 -35 -12 -14 -27 -16 -165 -15 -51 0 -62 3
-80 25 -34 42 -66 47 -156 26 -52 -12 -88 -26 -101 -41 -11 -12 -26 -19 -34
-16 -10 4 -14 -2 -14 -19 0 -17 -4 -23 -14 -19 -14 5 -26 -23 -26 -64 0 -12
-8 -26 -17 -29 -10 -4 -23 -13 -28 -20 -12 -16 -109 -13 -140 4 -13 7 -26 8
-37 2 -13 -7 -21 -4 -34 17 -16 23 -19 24 -30 10 -6 -9 -17 -15 -24 -14 -7 2
-18 -12 -24 -30 -6 -18 -14 -31 -17 -27 -4 3 -5 -22 -5 -55 2 -60 -7 -78 -19
-40 -3 11 -11 20 -16 20 -5 0 -2 -12 8 -26 25 -39 24 -64 -1 -60 -12 2 -32 -4
-46 -13 -38 -25 -89 -40 -93 -28 -3 10 -15 0 -59 -49 -31 -34 -53 -50 -85 -63
-33 -13 -43 -34 -23 -46 6 -4 26 -30 45 -58 l35 -51 -22 -23 c-12 -13 -27 -23
-35 -23 -7 0 -13 -9 -13 -20 0 -11 -4 -20 -10 -20 -16 0 -12 -13 14 -41 18
-20 23 -35 22 -68 -1 -23 1 -44 6 -47 18 -11 6 -24 -21 -24 -16 0 -36 -6 -43
-13 -7 -8 -23 -13 -35 -12 -23 2 -40 -25 -28 -44 3 -5 -5 -11 -17 -13 -34 -5
-34 -34 -1 -50 19 -9 28 -21 27 -36 0 -17 4 -22 19 -20 45 7 46 -125 1 -142
-19 -8 -24 -17 -24 -45 0 -25 -4 -35 -16 -35 -12 0 -14 -5 -9 -17 25 -59 34
-96 29 -120 -5 -24 1 -33 39 -65 41 -34 68 -88 44 -88 -5 0 -6 -10 -2 -22 3
-13 8 -32 10 -44 1 -12 10 -35 19 -52 9 -17 16 -38 16 -47 0 -8 4 -15 8 -15
12 0 34 -49 27 -60 -3 -5 -1 -10 4 -12 15 -5 40 -113 47 -202 4 -45 9 -86 13
-93 3 -7 15 15 26 49 10 33 21 55 23 49 4 -12 -26 -111 -38 -124 -9 -11 0 -57
12 -57 5 0 6 -5 2 -11 -3 -6 -1 -22 7 -35 19 -36 5 -40 -54 -17 -86 35 -91 35
-116 9 -17 -18 -24 -41 -28 -86 -7 -71 18 -372 27 -344 7 18 7 18 13 -1 4 -11
12 -54 18 -95 13 -86 26 -116 76 -171 57 -63 56 -45 -2 43 -64 95 -70 120 -60
231 4 45 6 121 5 168 -1 54 3 90 10 94 15 9 48 -33 60 -78 6 -21 18 -40 26
-43 50 -15 48 -14 30 -27 -13 -9 -16 -20 -11 -40 4 -15 11 -24 16 -21 5 3 9 0
9 -6 0 -6 10 -8 25 -4 25 6 25 5 24 -52 0 -41 -3 -53 -9 -39 -7 19 -8 18 -14
-6 -5 -16 0 -45 13 -80 28 -72 26 -81 -9 -39 -33 37 -40 34 -14 -6 30 -45 3
-40 -43 9 -25 27 -47 46 -49 44 -10 -10 59 -95 96 -117 34 -21 40 -30 38 -55
-1 -16 11 -55 25 -85 15 -30 19 -44 10 -30 -26 37 -61 67 -83 73 -19 5 -26 1
-58 -38 -23 -27 -49 -18 -62 21 -7 19 -14 33 -16 31 -3 -2 -1 -15 4 -28 7 -16
3 -36 -11 -68 -25 -57 -12 -109 37 -146 67 -51 143 -50 192 2 l24 26 1 -49 c3
-71 3 -78 10 -89 4 -5 16 -41 29 -80 36 -111 80 -209 104 -227 21 -17 21 -19
19 -407 -1 -342 -3 -393 -17 -407 -24 -23 -19 -34 14 -34 l30 0 1 308 0 307
28 -80 c35 -103 67 -157 147 -246 35 -39 64 -77 64 -83 0 -6 4 -6 9 2 7 11 9
11 14 -2 4 -9 1 -16 -6 -16 -6 0 -1 -7 11 -16 12 -8 27 -12 34 -8 6 4 9 3 6
-2 -3 -5 6 -18 20 -28 15 -12 22 -14 17 -5 -4 8 1 5 12 -6 42 -42 93 -85 93
-79 0 4 10 -5 23 -19 l23 -27 432 0 c283 0 431 3 427 10 -3 6 1 7 9 4 16 -6
55 18 114 68 19 16 44 28 61 28 23 0 31 7 45 38 11 23 25 38 36 39 21 2 69 33
70 45 0 4 -8 5 -17 1 -10 -3 11 17 47 45 75 59 141 138 199 237 l41 70 0 -255
c0 -140 3 -272 6 -292 7 -41 24 -52 25 -15 l0 22 11 -23 c6 -12 15 -22 20 -22
14 0 9 34 -12 68 -19 31 -20 50 -19 325 0 387 3 408 61 494 25 37 54 86 63
108 16 40 48 185 60 279 l7 50 20 -33 c36 -57 100 -76 157 -47 44 23 61 58 61
126 0 34 6 73 14 89 8 15 29 88 47 162 31 126 34 147 37 344 4 215 -5 302 -34
325 -12 11 -12 7 1 -23 18 -45 20 -67 2 -43 -12 16 -16 15 -53 -21 -37 -34
-161 -220 -153 -227 2 -2 24 -6 49 -9 l45 -6 -34 13 c-19 7 -36 17 -38 23 -6
18 77 85 98 80 17 -4 19 1 19 38 0 58 15 65 29 12 18 -71 28 -75 35 -13 4 31
11 58 16 61 9 6 6 -115 -5 -233 -5 -40 -3 -68 4 -76 21 -25 -23 -195 -64 -251
-12 -16 -28 -41 -34 -55 -10 -19 -6 -17 18 10 28 33 30 33 31 12 0 -21 -23
-74 -49 -112 -9 -13 -15 -10 -35 15 l-25 30 -65 -33 c-44 -23 -68 -42 -76 -60
-18 -47 -2 86 17 141 10 27 32 65 49 85 17 21 39 53 48 72 16 34 16 34 -1 10
-33 -46 -91 -105 -98 -98 -3 3 5 29 20 57 34 68 41 125 21 180 -9 24 -15 46
-13 47 2 2 27 -5 55 -16 l53 -20 -16 29 c-18 37 -52 61 -73 54 -12 -5 -14 1
-9 38 4 24 9 83 13 131 l7 87 74 31 c41 17 84 35 96 40 43 17 -15 11 -66 -7
-54 -20 -77 -10 -58 25 17 31 13 58 -14 112 -31 62 -34 97 -5 60 11 -14 20
-33 20 -43 0 -10 5 -15 10 -12 6 3 10 26 10 50 0 92 60 326 111 430 10 22 19
45 19 51 0 7 13 26 30 43 27 30 28 32 7 29 -17 -2 -22 2 -21 20 0 15 -5 22
-18 22 -17 0 -14 6 15 43 32 39 39 55 52 132 7 41 -12 95 -33 95 -13 0 -10 6
11 25 15 14 27 29 27 34 0 11 84 51 109 51 11 0 21 6 21 14 0 8 15 27 34 43
18 15 37 39 41 52 7 22 5 24 -24 18 -27 -6 -33 -3 -46 22 -17 34 -33 41 -89
41 -33 0 -50 7 -75 29 -18 16 -32 33 -32 38 0 4 -2 16 -5 26 -3 10 0 24 6 32
9 11 9 15 1 15 -6 0 -11 5 -11 12 0 27 55 119 101 168 27 29 46 57 42 61 -4 4
-27 3 -50 -4 -35 -9 -48 -8 -83 8 -46 21 -90 67 -90 95 0 25 -25 43 -66 47
-19 2 -51 9 -72 16 -31 10 -37 17 -34 37 1 14 3 39 3 56 1 23 8 35 25 45 14 7
24 21 24 33 0 20 -5 21 -84 21 -73 0 -87 3 -105 21 -10 12 -40 27 -65 35 -25
7 -46 18 -46 24 0 5 -5 2 -11 -8 -7 -11 -17 -16 -29 -12 -10 3 -21 1 -25 -5
-3 -6 -11 -7 -17 -4 -6 4 -21 9 -32 11 -71 12 -87 17 -107 39 -12 13 -27 24
-32 24 -5 0 -25 14 -44 30 -41 36 -54 37 -89 5 -33 -30 -36 -30 -59 -5 -10 12
-25 18 -32 16 -7 -3 -13 -2 -13 3 0 4 -9 18 -20 31 -11 13 -20 32 -20 43 0 35
-42 88 -64 83 -11 -3 -26 0 -34 6 -7 7 -33 13 -57 14 -39 3 -44 0 -53 -24z
m-109 -1074 c38 1 47 -1 32 -8 -15 -6 -16 -9 -4 -9 9 -1 19 2 23 6 13 13 105
9 111 -5 3 -7 10 -10 15 -7 6 4 17 1 25 -5 11 -9 15 -9 15 -1 0 9 5 9 20 1 11
-6 20 -8 20 -4 0 4 11 -3 25 -16 21 -19 25 -21 25 -7 0 9 5 17 10 17 6 0 10
-5 10 -12 0 -6 3 -8 7 -5 3 4 16 -5 29 -18 23 -25 41 -34 29 -15 -7 12 -3 12
19 4 9 -3 16 -12 16 -20 0 -8 5 -14 11 -14 6 0 8 7 5 15 -20 49 -20 51 0 30
10 -11 36 -28 57 -37 20 -10 37 -23 37 -29 0 -6 6 -9 13 -6 6 2 18 -3 24 -12
11 -13 14 -14 22 -2 5 8 14 10 22 5 8 -5 22 -7 31 -6 9 2 19 -6 23 -18 4 -12
13 -19 20 -16 7 2 16 -3 20 -12 5 -14 7 -14 15 -2 6 8 10 10 10 4 0 -7 12 -15
28 -19 15 -3 36 -16 47 -29 11 -12 42 -37 69 -55 35 -24 45 -36 35 -42 -11 -6
-11 -14 -1 -42 15 -43 15 -64 0 -70 -10 -3 -9 -12 3 -39 12 -24 14 -39 7 -51
-7 -13 -5 -19 7 -23 12 -5 13 -9 4 -20 -9 -11 -1 -25 40 -66 81 -81 131 -205
131 -326 l0 -44 -67 7 c-38 4 -153 20 -258 36 -406 62 -562 46 -688 -70 -39
-36 -48 -40 -70 -32 -14 6 -64 15 -110 21 -70 10 -95 9 -143 -3 -57 -15 -59
-14 -89 9 -85 65 -259 113 -411 114 -83 0 -278 -22 -343 -40 -20 -5 -82 -16
-137 -25 -56 -8 -114 -19 -128 -25 -24 -9 -26 -8 -26 18 1 60 29 181 53 228
14 27 60 88 102 137 65 75 74 90 65 107 -6 11 -15 20 -21 20 -6 0 -4 9 4 21
16 22 12 59 -6 59 -6 0 0 11 12 24 l23 24 -22 4 c-21 3 -21 4 9 42 37 46 39
56 9 49 -17 -4 -10 6 27 41 28 25 55 44 62 41 7 -2 15 0 18 5 3 5 12 7 20 4 8
-4 26 6 41 23 16 18 24 22 20 11 -8 -26 7 -22 38 11 18 19 34 27 47 24 13 -4
21 2 28 20 7 17 19 26 41 29 17 3 33 1 36 -4 3 -4 15 -8 27 -7 12 0 16 3 10 6
-7 2 -13 11 -13 18 0 25 21 28 50 7 26 -20 40 -20 40 0 0 5 -5 6 -11 2 -7 -4
-10 -1 -7 6 4 14 104 43 118 35 10 -6 60 15 60 25 0 6 8 8 43 11 6 1 28 -2 47
-5 26 -5 30 -4 15 3 -15 7 -7 9 35 9 31 0 65 -6 79 -15 17 -11 25 -12 31 -4 4
7 30 13 58 15 46 3 50 1 46 -18 -3 -18 -1 -18 23 7 21 21 30 24 41 15 7 -7 37
-11 65 -10z m-695 -965 c-21 -2 -57 -2 -80 0 -24 2 -7 4 37 4 44 0 63 -2 43
-4z m-165 -10 c-7 -2 -21 -2 -30 0 -10 3 -4 5 12 5 17 0 24 -2 18 -5z m274 1
c-3 -3 -12 -4 -19 -1 -8 3 -5 6 6 6 11 1 17 -2 13 -5z m936 -1 c-7 -2 -21 -2
-30 0 -10 3 -4 5 12 5 17 0 24 -2 18 -5z m-1280 -10 c-7 -2 -19 -2 -25 0 -7 3
-2 5 12 5 14 0 19 -2 13 -5z m1214 1 c-3 -3 -12 -4 -19 -1 -8 3 -5 6 6 6 11 1
17 -2 13 -5z m-67 -19 c-46 -18 -64 -17 -25 0 17 8 37 14 45 14 8 0 -1 -7 -20
-14z m-597 -36 c20 -11 37 -21 37 -24 0 -4 -111 44 -120 53 -9 9 45 -11 83
-29z m1531 15 c3 -8 2 -12 -4 -9 -6 3 -10 10 -10 16 0 14 7 11 14 -7z m-1678
-27 c104 -38 164 -79 190 -129 56 -108 -2 -342 -116 -462 -92 -98 -265 -142
-392 -102 -75 24 -169 90 -205 145 -45 67 -83 188 -90 284 -5 79 -4 85 29 147
31 59 39 68 99 98 55 28 80 35 160 40 119 9 272 -1 325 -21z m1179 12 c140
-25 210 -101 220 -242 l4 -62 -9 50 c-9 49 -36 125 -44 125 -3 0 4 -25 15 -55
47 -134 -6 -348 -108 -434 -31 -26 -32 -29 -8 -14 l30 17 -19 -22 c-11 -12
-49 -37 -85 -55 -61 -30 -73 -32 -166 -32 -78 1 -113 5 -159 23 -70 25 -139
69 -131 82 3 4 -10 21 -29 37 -76 63 -132 256 -106 364 13 54 76 133 133 167
103 63 281 82 462 51z m465 -26 c0 -3 -9 -3 -20 0 -18 5 -20 0 -22 -41 -1 -46
-1 -46 -5 -8 -6 51 1 66 26 59 12 -3 21 -8 21 -10z m-2294 -57 c0 -30 -4 -52
-7 -48 -12 12 -15 92 -4 96 5 2 11 5 11 5 1 1 1 -24 0 -53z m1134 34 c30 -5
12 -6 -55 -3 -55 3 -102 7 -104 9 -8 7 114 3 159 -6z m1030 -4 c28 -1 36 -6
38 -24 4 -27 5 -27 -43 -2 -22 11 -47 20 -57 20 -9 0 -20 5 -24 11 -5 9 1 10
22 4 16 -4 45 -8 64 -9z m-2353 -58 c-2 -13 -4 -3 -4 22 0 25 2 35 4 23 2 -13
2 -33 0 -45z m144 40 c-8 -23 -31 -37 -31 -19 0 7 -8 7 -26 0 -45 -17 -39 0 7
21 56 25 60 25 50 -2z m2349 12 c0 -5 -2 -10 -4 -10 -3 0 -8 5 -11 10 -3 6 -1
10 4 10 6 0 11 -4 11 -10z m-2513 -22 c-3 -8 -6 -5 -6 6 -1 11 2 17 5 13 3 -3
4 -12 1 -19z m2290 -40 c-3 -8 -6 -5 -6 6 -1 11 2 17 5 13 3 -3 4 -12 1 -19z
m173 -68 c12 -8 9 -10 -13 -10 -35 0 -71 -37 -91 -93 -8 -23 -15 -35 -15 -27
-1 25 46 117 66 129 23 13 34 13 53 1z m-2345 -37 l26 -38 -29 33 c-25 28 -33
31 -63 26 -26 -4 -30 -3 -19 5 29 21 57 12 85 -26z m1184 -11 c19 -14 29 -35
38 -78 6 -32 19 -79 27 -103 9 -24 14 -46 11 -49 -3 -3 -5 1 -5 8 0 7 -2 11
-5 8 -10 -9 7 -38 18 -31 6 3 7 1 3 -6 -5 -7 2 -37 15 -68 13 -31 24 -52 27
-45 2 6 -2 21 -8 34 -9 20 -9 21 2 4 7 -11 27 -35 43 -55 17 -19 24 -32 18
-27 -22 12 -14 -5 16 -40 37 -42 119 -191 127 -232 4 -17 3 -47 0 -67 -8 -41
-44 -64 -103 -66 -29 -1 -32 -3 -13 -7 l25 -5 -25 -8 c-21 -6 -19 -7 15 -8 49
-1 102 29 116 67 16 40 4 104 -32 167 l-31 55 25 -9 c13 -5 69 -15 124 -22
180 -21 338 17 419 104 l39 40 -45 -35 c-45 -36 -82 -58 -96 -58 -4 0 14 14
39 31 50 33 119 107 112 119 -3 4 2 13 10 20 22 18 59 86 95 177 19 45 36 81
39 81 3 -1 13 2 22 6 9 4 43 6 75 4 l59 -3 -2 -100 c-6 -259 -109 -1047 -141
-1086 -27 -31 -83 -121 -72 -114 8 5 7 0 -2 -14 -7 -12 -16 -21 -20 -21 -5 0
-8 -6 -8 -13 0 -7 -21 -35 -47 -62 -27 -30 -47 -61 -49 -77 -3 -34 -11 -48
-30 -48 -8 0 -14 -4 -14 -9 0 -14 -30 -7 -41 10 -7 12 -9 12 -9 -1 0 -9 -15
-28 -32 -44 -20 -18 -33 -39 -34 -55 -1 -14 -2 -34 -3 -43 -1 -22 -41 -35 -52
-17 -7 11 -9 10 -9 -4 0 -26 -36 -61 -55 -53 -9 3 -13 2 -10 -4 3 -6 -1 -10
-9 -10 -9 0 -16 -7 -16 -15 0 -8 -6 -12 -12 -10 -7 3 -22 -11 -33 -32 -26 -47
-45 -54 -46 -16 0 23 -3 20 -15 -19 -17 -55 -37 -75 -27 -27 4 21 3 30 -4 26
-6 -4 -13 -20 -17 -37 -3 -17 -11 -30 -18 -29 -7 1 -20 0 -28 -4 -8 -3 -28 -7
-43 -10 -23 -4 -30 0 -37 19 -10 25 -22 33 -19 12 3 -28 -2 -36 -28 -44 -46
-12 -58 -10 -68 14 -5 12 -13 22 -17 22 -5 0 -8 8 -9 18 0 12 -3 11 -10 -6 -5
-13 -7 -28 -4 -32 5 -7 -35 -26 -43 -21 -2 1 -11 -6 -20 -17 -9 -10 -13 -12
-8 -5 13 19 5 23 -52 26 -43 2 -49 4 -39 17 6 8 2 6 -11 -4 -12 -11 -22 -16
-22 -13 0 4 -11 2 -25 -3 -18 -7 -25 -6 -25 3 0 8 -4 7 -10 -3 -7 -11 -10 -11
-10 -2 0 7 -4 11 -9 8 -5 -4 -11 -1 -13 5 -2 7 -12 7 -31 0 -24 -9 -27 -8 -27
12 -1 20 -2 20 -16 -6 -12 -22 -17 -25 -28 -15 -7 7 -11 19 -9 25 7 18 -2 16
-21 -3 -15 -14 -16 -14 -16 4 0 30 -29 36 -40 9 -7 -17 -9 -18 -9 -4 -1 21 -5
21 -36 1 -22 -14 -24 -14 -34 4 -6 11 -8 22 -5 25 3 3 -4 8 -15 12 -12 3 -21
11 -21 16 0 6 -4 8 -9 5 -4 -3 -19 3 -31 14 -12 11 -30 22 -40 25 -10 3 -23
19 -30 35 -13 32 -76 73 -127 85 -35 7 -55 26 -35 33 8 2 3 14 -13 34 -14 16
-25 35 -25 43 0 7 -11 16 -25 19 -18 5 -25 13 -25 31 0 28 -15 41 -24 20 -6
-18 -36 -9 -36 11 0 8 -4 14 -10 14 -5 0 -7 7 -3 16 5 14 -27 54 -44 54 -5 0
-14 9 -21 20 -7 12 -8 20 -2 20 5 0 10 5 10 10 0 6 -7 10 -15 10 -8 0 -14 5
-13 12 2 6 -11 21 -29 32 -39 26 -105 133 -100 162 2 13 -4 26 -14 33 -11 6
-16 17 -13 26 4 8 1 21 -5 29 -6 7 -9 15 -6 17 2 3 0 22 -6 44 -10 40 -18 104
-22 160 -1 17 -9 36 -17 43 -11 10 -11 12 -1 6 11 -6 13 -2 7 17 -4 13 -7 39
-6 57 0 18 -10 90 -24 160 -28 146 -42 286 -26 262 5 -8 10 -24 10 -34 0 -11
3 -16 7 -13 6 7 33 -38 33 -56 0 -27 35 -84 63 -105 32 -22 32 -22 35 -2 2 12
-1 27 -7 33 -14 18 -23 77 -12 77 5 0 12 -6 14 -12 4 -8 6 -9 6 -2 1 7 -13 25
-30 42 -17 17 -28 35 -25 41 4 6 -2 27 -13 48 -25 49 -73 227 -69 254 3 20 4
20 41 -5 41 -28 62 -35 31 -10 -18 14 -17 14 6 2 14 -7 29 -12 35 -13 13 0
104 -163 102 -184 -2 -27 56 -131 98 -176 71 -76 199 -94 385 -54 52 11 110
23 129 26 l34 6 -30 -54 c-17 -30 -39 -82 -48 -115 -16 -57 -16 -64 -1 -92 9
-17 24 -35 34 -40 23 -12 181 -21 188 -11 3 5 0 18 -6 30 -10 17 3 13 73 -25
107 -58 128 -59 196 -1 62 53 75 57 172 53 69 -3 74 -2 71 17 -6 32 -33 55
-64 55 -32 0 -129 -46 -190 -91 -23 -16 -48 -29 -57 -29 -23 0 -73 35 -64 45
5 4 3 5 -4 2 -6 -4 -17 -1 -25 6 -7 7 -21 16 -31 20 -10 4 -15 11 -12 17 4 6
-1 7 -11 3 -10 -4 -15 -2 -11 3 3 5 -2 10 -11 11 -9 1 -36 5 -59 9 -52 8 -103
-17 -83 -41 19 -22 -27 -14 -48 8 -26 29 -23 123 6 168 12 20 22 46 22 57 0
13 24 45 59 79 95 92 145 190 166 321 4 23 11 42 16 42 4 0 6 6 3 14 -3 8 3
27 13 42 10 16 12 25 6 21 -19 -12 -16 3 4 26 22 24 83 18 122 -11z m-1319
-84 c-4 -49 -5 -50 -8 -14 -3 34 2 66 10 66 2 0 1 -24 -2 -52z m2570 10 c0 -4
-4 -8 -10 -8 -5 0 -10 4 -10 9 0 5 -3 18 -6 28 -5 16 -4 16 10 -1 9 -11 16
-23 16 -28z m-2597 -108 c18 -40 39 -180 30 -190 -8 -8 -71 68 -119 142 -28
43 -56 74 -79 85 -33 18 -34 20 -20 40 l15 22 78 -29 c71 -26 78 -31 95 -70z
m2304 58 c-3 -8 -6 -5 -6 6 -1 11 2 17 5 13 3 -3 4 -12 1 -19z m-2018 -75 c23
-46 39 -83 36 -83 -5 0 -85 156 -85 166 0 12 7 1 49 -83z m1991 -20 c-11 -17
-11 -17 -6 0 3 10 6 24 7 30 0 9 2 9 5 0 3 -7 0 -20 -6 -30z m-22 -59 c-21
-49 -58 -104 -69 -104 -6 0 0 13 13 28 12 15 32 47 42 70 11 23 21 40 23 38 2
-2 -2 -16 -9 -32z m-2422 -29 c15 -37 17 -114 4 -155 -7 -20 -8 -16 -10 25 -2
47 -3 48 -9 15 l-7 -35 -7 34 c-9 42 -9 135 0 144 11 11 13 9 29 -28z m1769
-55 c10 -11 13 -20 7 -20 -6 0 -16 9 -22 20 -6 11 -9 20 -7 20 2 0 12 -9 22
-20z m635 -23 c0 -2 -10 -12 -22 -23 l-23 -19 19 23 c18 21 26 27 26 19z m-64
-52 c-11 -8 -25 -15 -30 -15 -6 1 0 7 14 15 32 19 40 18 16 0z m387 -120 c0
-22 -7 -53 -17 -70 l-17 -30 5 55 c3 30 6 71 6 90 1 31 2 33 12 15 6 -10 11
-37 11 -60z m-1686 -217 c-3 -7 -5 -2 -5 12 0 14 2 19 5 13 2 -7 2 -19 0 -25z
m1785 -115 c10 -9 18 -23 18 -31 0 -10 -8 -6 -25 12 -14 15 -25 29 -25 32 0 9
14 3 32 -13z m-52 -3 c-8 -5 -19 -10 -25 -10 -5 0 -3 5 5 10 8 5 20 10 25 10
6 0 3 -5 -5 -10z m-2609 -70 c13 -8 19 -7 19 0 0 6 5 8 10 5 13 -8 6 -81 -10
-101 -22 -26 -59 -17 -75 19 -15 31 -15 31 -11 4 2 -17 -1 -26 -8 -24 -6 2
-11 12 -11 23 0 10 -8 22 -17 26 -26 10 -22 25 10 42 32 18 66 20 93 6z m2713
-6 c9 -25 7 -49 -6 -67 -11 -15 -13 -10 -13 33 0 50 8 64 19 34z m-33 -10 c11
-13 10 -22 -6 -52 -18 -33 -24 -37 -59 -37 -31 0 -43 6 -60 28 l-21 29 28 24
c33 29 97 33 118 8z m-2621 -68 c0 -2 -8 -10 -17 -17 -16 -13 -17 -12 -4 4 13
16 21 21 21 13z"/>
<path d="M1985 2877 c-22 -5 -93 -6 -159 -3 -134 6 -152 1 -204 -59 -41 -46
-59 -81 -67 -130 -6 -37 -5 -38 8 -17 7 12 16 19 20 16 4 -4 7 -2 7 4 0 7 5
12 11 12 5 0 8 -4 5 -8 -3 -5 2 -9 10 -9 9 0 13 6 9 15 -4 12 -3 12 9 3 11 -9
15 -8 20 5 4 9 12 14 22 10 10 -4 13 -2 8 6 -5 7 -2 9 9 5 9 -3 18 0 21 9 3 9
10 12 16 9 18 -11 260 -34 260 -24 0 14 75 4 83 -11 4 -9 6 -5 4 13 -5 33 0
35 13 5 8 -21 9 -22 10 -3 l1 20 9 -20 9 -20 1 20 1 20 10 -20 c7 -14 8 -3 5
40 -3 38 -1 53 4 40 5 -11 9 -33 10 -50 l2 -30 14 30 15 30 -4 -27 c-2 -15 0
-25 4 -22 5 3 9 17 10 32 0 24 1 25 9 7 7 -16 9 -13 9 17 1 20 -2 44 -6 54 -6
16 -7 16 -14 -2 -7 -17 -8 -16 -8 6 -1 20 -3 22 -11 10 -8 -13 -10 -12 -10 4
0 13 -5 17 -20 13 -11 -3 -22 -2 -25 3 -6 10 -81 9 -130 -3z"/>
<path d="M2886 2821 c-31 -69 -34 -91 -5 -41 19 34 20 32 5 -17 -14 -43 4 -23
34 40 26 53 32 57 12 7 -3 -8 13 3 35 25 23 22 40 42 38 44 -12 12 -73 -12
-85 -34 -7 -14 -15 -23 -17 -21 -3 2 1 14 7 26 6 12 10 24 7 26 -2 2 -16 -22
-31 -55z"/>
<path d="M2979 2830 c-27 -25 -51 -41 -54 -36 -3 6 -2 0 1 -13 3 -13 2 -21 -3
-18 -5 3 -9 -3 -9 -13 0 -14 3 -16 13 -8 10 8 13 7 13 -3 0 -8 5 -6 13 6 10
13 16 15 21 6 4 -6 12 -9 17 -5 5 3 7 9 4 13 -2 5 4 16 15 26 18 16 18 16 13
-7 -3 -12 -12 -30 -20 -39 -12 -14 -12 -17 0 -22 8 -3 18 -2 23 3 5 5 34 10
64 11 30 1 70 8 89 15 41 17 44 17 35 2 -4 -7 -3 -8 5 -4 6 4 9 11 6 16 -7 12
20 19 46 13 23 -6 23 -7 -6 -19 -51 -22 -11 -15 67 11 87 30 94 30 48 5 -39
-21 -36 -25 7 -10 22 8 25 7 11 -2 -15 -11 -12 -14 19 -24 40 -14 79 -3 67 19
-25 42 -47 66 -56 61 -6 -4 -8 -2 -4 4 13 22 -47 49 -114 51 -36 1 -80 4 -99
8 -24 4 -32 2 -27 -6 4 -6 11 -9 16 -6 10 6 65 -13 58 -21 -9 -8 -98 18 -92
27 3 5 -28 8 -67 7 -72 -1 -73 -1 -120 -48z m416 10 c19 -21 17 -24 -9 -14 -9
3 -13 11 -9 17 4 6 0 8 -11 4 -10 -4 -15 -3 -11 3 9 15 20 12 40 -10z m-275
-33 c0 -2 -15 -16 -32 -33 l-33 -29 29 33 c28 30 36 37 36 29z m-162 -32 c-6
-14 -13 -23 -15 -21 -5 5 15 46 22 46 3 0 -1 -11 -7 -25z m32 10 c-6 -8 -8
-20 -4 -27 5 -10 4 -10 -6 -1 -11 10 -11 15 0 28 7 8 15 15 17 15 3 0 0 -7 -7
-15z m40 -50 c-7 -9 -15 -13 -19 -10 -3 3 1 10 9 15 21 14 24 12 10 -5z"/>
<path d="M2226 2828 c-8 -27 -14 -122 -7 -103 11 28 23 115 16 115 -3 0 -7 -6
-9 -12z"/>
<path d="M2247 2800 c-4 -14 -6 -38 -6 -55 l1 -30 9 34 c6 18 9 43 7 55 -3 20
-4 19 -11 -4z"/>
<path d="M2831 2794 c0 -11 3 -14 6 -6 3 7 2 16 -1 19 -3 4 -6 -2 -5 -13z"/>
<path d="M2851 2794 c0 -11 3 -14 6 -6 3 7 2 16 -1 19 -3 4 -6 -2 -5 -13z"/>
<path d="M1662 2518 c-101 -49 -145 -182 -106 -323 8 -32 12 -37 9 -16 -22
153 -16 189 43 266 21 27 55 60 77 72 50 28 34 29 -23 1z"/>
<path d="M2120 2505 c13 -14 26 -25 28 -25 3 0 -5 11 -18 25 -13 14 -26 25
-28 25 -3 0 5 -11 18 -25z"/>
<path d="M2161 2453 c7 -12 15 -20 18 -17 3 2 -3 12 -13 22 -17 16 -18 16 -5
-5z"/>
<path d="M2242 2409 c18 -36 34 -62 36 -58 4 9 -30 77 -53 104 -9 11 -1 -9 17
-46z"/>
<path d="M1840 2450 c-80 -10 -156 -46 -179 -84 -34 -57 -35 -122 -1 -81 16
20 89 20 138 0 l37 -15 -27 21 c-34 25 -35 39 -4 68 24 23 46 21 46 -3 0 -14
46 -59 75 -73 11 -6 37 -8 58 -5 31 3 43 12 64 43 29 43 42 48 66 21 24 -27
21 -40 -10 -45 -16 -2 -12 -3 8 -2 19 2 50 -4 68 -11 44 -19 44 -19 37 16 -4
23 -2 29 6 24 7 -4 3 8 -8 27 -20 34 -77 79 -98 79 -6 -1 5 -9 25 -20 32 -17
69 -58 69 -77 0 -3 -13 6 -28 20 -16 15 -52 37 -81 47 -93 36 -300 21 -396
-28 -29 -14 -29 -14 -15 3 25 30 101 56 205 70 67 8 84 13 50 13 -27 -1 -75
-4 -105 -8z"/>
<path d="M2023 2443 c9 -2 23 -2 30 0 6 3 -1 5 -18 5 -16 0 -22 -2 -12 -5z"/>
<path d="M2078 2433 c7 -3 16 -2 19 1 4 3 -2 6 -13 5 -11 0 -14 -3 -6 -6z"/>
<path d="M2297 2338 c9 -80 -99 -368 -138 -368 -5 0 -9 -6 -9 -12 1 -23 70 66
106 135 43 85 68 176 59 225 -9 56 -24 72 -18 20z"/>
<path d="M1570 2130 c0 -20 54 -112 76 -130 10 -8 6 1 -8 20 -15 20 -36 56
-47 80 -11 25 -21 38 -21 30z"/>
<path d="M3007 2528 c-83 -104 -127 -191 -127 -250 0 -24 17 -23 25 2 5 15 16
20 43 21 20 1 28 3 17 6 -46 10 -47 11 -30 43 21 41 47 38 73 -9 20 -34 29
-41 66 -46 71 -11 104 1 126 46 20 39 21 39 49 24 38 -19 43 -37 17 -53 -20
-13 -20 -13 3 -6 17 4 21 3 16 -6 -6 -9 -3 -9 13 -1 30 16 35 14 78 -20 62
-49 75 -54 70 -27 -3 13 -5 26 -5 31 -1 4 -7 7 -15 7 -24 0 -25 13 -5 58 27
57 21 69 -17 34 l-31 -28 -32 22 c-63 43 -134 57 -250 51 -58 -3 -116 -9 -128
-13 -33 -9 -29 14 5 27 15 6 77 15 137 19 l110 9 -123 -4 c-135 -3 -130 -7
-75 63 19 23 32 42 29 42 -2 0 -20 -19 -39 -42z"/>
<path d="M3340 2476 c0 -2 8 -10 18 -17 15 -13 16 -12 3 4 -13 16 -21 21 -21
13z"/>
<path d="M3274 2436 c32 -13 70 -35 84 -48 13 -13 23 -17 20 -9 -5 18 -93 68
-133 76 -16 3 -4 -5 29 -19z"/>
<path d="M2731 2304 c1 -32 5 -72 9 -89 4 -17 5 8 2 55 -6 99 -13 120 -11 34z"/>
<path d="M2531 2315 c15 -8 36 -29 48 -47 11 -18 21 -28 21 -21 0 17 -65 83
-81 83 -8 -1 -2 -7 12 -15z"/>
<path d="M1450 2130 c6 -11 13 -20 16 -20 2 0 0 9 -6 20 -6 11 -13 20 -16 20
-2 0 0 -9 6 -20z"/>
<path d="M1400 1911 c0 -6 4 -13 10 -16 6 -3 7 1 4 9 -7 18 -14 21 -14 7z"/>
<path d="M2313 1840 c-2 -24 -33 -60 -33 -38 0 10 -2 10 -9 -1 -11 -17 -4 -41
12 -41 6 0 7 3 4 7 -4 3 2 12 13 20 11 8 20 24 21 36 1 21 2 20 9 -3 5 -15 8
-18 9 -8 1 21 -9 48 -18 48 -4 0 -7 -9 -8 -20z"/>
<path d="M2701 1814 c-1 -40 32 -73 57 -58 23 15 26 48 6 65 -16 13 -16 12 -5
-10 11 -19 10 -26 -3 -39 -13 -14 -14 -13 -9 6 3 12 0 28 -6 35 -6 8 -7 18 -3
22 4 5 1 5 -5 1 -7 -4 -11 -20 -9 -36 2 -17 -1 -27 -6 -24 -5 3 -7 11 -5 18 2
6 1 20 -4 31 -6 17 -8 15 -8 -11z"/>
<path d="M2580 1370 c-18 -6 -8 -8 39 -9 66 -1 136 -26 162 -57 7 -8 -9 -4
-37 10 -27 14 -69 28 -94 31 l-45 5 48 -14 c26 -8 72 -34 102 -58 30 -23 83
-62 117 -85 55 -37 64 -40 69 -25 5 14 7 13 10 -7 2 -14 9 -26 14 -28 14 -4 6
80 -9 89 -25 17 -36 8 -31 -24 4 -31 4 -31 -6 4 -6 20 -17 39 -25 42 -12 5
-14 1 -8 -17 5 -17 -2 -13 -32 18 -22 22 -42 39 -46 37 -4 -1 -5 5 -2 13 4 8
1 15 -5 15 -6 0 -10 6 -8 13 1 6 -4 11 -12 9 -7 -1 -18 1 -25 7 -14 11 -114
41 -135 40 -9 -1 -27 -5 -41 -9z"/>
<path d="M2274 1341 c-23 -10 -49 -29 -59 -42 l-17 -24 6 25 c4 16 -2 10 -15
-15 -19 -37 -20 -38 -16 -10 5 27 4 28 -9 10 -8 -10 -14 -26 -15 -34 0 -11 -3
-10 -8 4 -7 16 -10 12 -19 -25 -9 -43 -10 -44 -11 -11 l-1 34 -19 -22 c-11
-12 -22 -22 -25 -22 -11 1 -76 -33 -76 -40 0 -4 -8 -9 -19 -12 -22 -5 -31 -45
-21 -90 5 -18 8 -24 9 -14 1 20 12 22 30 5 10 -10 12 -10 7 -1 -8 15 11 35
109 109 131 100 214 153 258 163 l42 11 -45 -5 -45 -4 35 14 35 13 -35 1 c-19
0 -54 -8 -76 -18z"/>
<path d="M2440 1330 c25 -8 117 -13 109 -6 -2 2 -33 6 -69 9 -39 3 -55 2 -40
-3z"/>
<path d="M2568 1333 c7 -3 16 -2 19 1 4 3 -2 6 -13 5 -11 0 -14 -3 -6 -6z"/>
<path d="M2980 1182 c0 -16 6 -44 14 -62 10 -25 14 -29 20 -15 3 9 6 31 6 48
0 24 -3 28 -10 17 -8 -12 -10 -11 -10 7 0 12 -4 25 -10 28 -6 4 -10 -6 -10
-23z"/>
<path d="M2335 1189 c-10 -15 -63 -34 -120 -43 -43 -7 -120 -52 -137 -81 l-17
-31 32 -3 c61 -7 86 -4 144 20 56 23 67 24 295 24 l236 -1 51 -32 c50 -30 52
-31 80 -14 34 19 51 10 33 -18 -17 -28 -14 -39 3 -16 8 11 15 28 15 39 0 23
-58 80 -76 73 -6 -2 -27 6 -45 20 -18 13 -38 24 -43 24 -6 -1 0 -7 14 -16 l25
-15 -25 7 c-14 4 -33 8 -42 8 -9 0 -14 5 -11 10 4 5 -3 7 -15 4 -13 -4 -20 -2
-16 4 3 5 18 7 33 4 19 -5 22 -4 11 3 -17 12 -73 7 -115 -9 -15 -6 -37 -8 -49
-5 -17 5 -18 4 -6 -4 13 -9 13 -11 -2 -11 -10 0 -18 3 -18 8 0 4 -33 8 -73 10
-109 5 -178 28 -134 45 7 3 6 6 -5 6 -9 1 -20 -4 -23 -10z m-75 -89 c-19 -17
-38 -30 -44 -30 -9 0 64 58 74 59 3 0 -11 -13 -30 -29z"/>
<path d="M2154 915 c3 -18 106 -139 113 -131 3 2 32 -9 66 -25 57 -27 71 -29
178 -29 151 0 180 12 294 124 27 27 42 43 33 36 -12 -8 -18 -9 -18 -2 0 6 9
16 21 22 11 7 18 14 15 17 -2 3 -17 -4 -33 -14 -15 -11 -53 -30 -83 -44 -49
-21 -73 -24 -212 -27 l-157 -4 -98 42 c-54 23 -103 44 -110 47 -6 2 -10 -3 -9
-12z m641 -61 c-16 -14 -43 -32 -60 -40 -16 -8 -22 -9 -11 -2 10 7 34 25 53
41 45 34 59 35 18 1z"/>
<path d="M1032 1995 c0 -16 2 -22 5 -12 2 9 2 23 0 30 -3 6 -5 -1 -5 -18z"/>
<path d="M1200 1340 c-12 -8 -9 -10 13 -10 15 0 27 5 27 10 0 13 -20 13 -40 0z"/>
<path d="M4093 3238 c-2 -16 1 -18 10 -9 7 7 8 14 1 21 -6 6 -10 2 -11 -12z"/>
<path d="M3975 1960 c3 -14 11 -46 17 -72 8 -36 8 -61 -2 -110 -12 -61 -15
-65 -109 -155 -53 -51 -91 -93 -85 -93 5 0 23 14 40 31 16 17 45 39 66 50 52
26 73 59 93 140 19 78 16 145 -9 200 -12 25 -15 27 -11 9z"/>
<path d="M1022 1765 c0 -16 2 -22 5 -12 2 9 2 23 0 30 -3 6 -5 -1 -5 -18z"/>
<path d="M1066 1570 c3 -14 10 -32 15 -40 7 -13 8 -13 8 0 0 8 -6 26 -15 40
l-15 25 7 -25z"/>
</g>
</svg>
